# xmcd CD database file
#
# Track frame offsets:
#	150
#	12512
#	27508
#	39024
#	54388
#	67125
#	81524
#	94611
#	109911
#	120242
#	135864
#	146695
#	161747
#	172754
#	187642
#	201043
#	217091
#	232527
#	245909
#	258956
#	275038
#	287788
#	304173
#
# Disc length: 4268 seconds
#
# Revision: 0
# Processed by: cddbd v1.5.2PL0 Copyright (c) Steve Scherf et al.
# Submitted via: CDex 1.70beta2
#
DISCID=4010aa17
DTITLE=Glenn Keener - Early Years
DYEAR=1999
DGENRE=Country
TTITLE0=Walk Don't Run
TTITLE1=Sleep Walk
TTITLE2=Me And Bobby Mc Gee
TTITLE3=I Can't Help Falling In Love With You
TTITLE4=Suspicion
TTITLE5=Help Me Make It Through The Night
TTITLE6=My Girl
TTITLE7=By The Time I Get To Phoenix
TTITLE8=Yours
TTITLE9=Last Date
TTITLE10=Take These Chains From My Heart
TTITLE11=Jamaica Farewell
TTITLE12=Ain't That Lovin' You Babe
TTITLE13=Have I Told You Lately That I Love You
TTITLE14=El Rancho Grande
TTITLE15=Tumbling Tumble Weed
TTITLE16=Honky Tonk
TTITLE17=Dreaming Of Rio
TTITLE18=Secret Love
TTITLE19=Never On Sunday
TTITLE20=Tin Bucket
TTITLE21=Marilyn
TTITLE22=Let's Rumble
EXTD=YEAR: 1999
EXTT0=
EXTT1=
EXTT2=
EXTT3=
EXTT4=
EXTT5=
EXTT6=
EXTT7=
EXTT8=
EXTT9=
EXTT10=
EXTT11=
EXTT12=
EXTT13=
EXTT14=
EXTT15=
EXTT16=
EXTT17=
EXTT18=
EXTT19=
EXTT20=
EXTT21=
EXTT22=
PLAYORDER=
